<mxfile host="65bd71144e">
    <diagram id="eBM8X4_kObECRYnpffsh" name="Page-1">
        <mxGraphModel dx="922" dy="1115" grid="1" gridSize="10" guides="1" tooltips="1" connect="1" arrows="1" fold="1" page="1" pageScale="1" pageWidth="850" pageHeight="1100" math="0" shadow="0">
            <root>
                <mxCell id="0"/>
                <mxCell id="1" parent="0"/>
                <mxCell id="48" value="" style="endArrow=none;html=1;dashed=1;dashPattern=8 8;entryX=0.5;entryY=1;entryDx=0;entryDy=0;" edge="1" parent="1" target="19">
                    <mxGeometry width="50" height="50" relative="1" as="geometry">
                        <mxPoint x="195" y="1050" as="sourcePoint"/>
                        <mxPoint x="210" y="798" as="targetPoint"/>
                    </mxGeometry>
                </mxCell>
                <mxCell id="50" value="" style="endArrow=none;html=1;dashed=1;dashPattern=8 8;entryX=0.5;entryY=1;entryDx=0;entryDy=0;startArrow=none;" edge="1" parent="1" target="20">
                    <mxGeometry width="50" height="50" relative="1" as="geometry">
                        <mxPoint x="275" y="1050" as="sourcePoint"/>
                        <mxPoint x="275" y="796" as="targetPoint"/>
                    </mxGeometry>
                </mxCell>
                <mxCell id="65" value="" style="endArrow=none;html=1;dashed=1;dashPattern=8 8;entryX=0.5;entryY=1;entryDx=0;entryDy=0;" edge="1" parent="1" target="64">
                    <mxGeometry width="50" height="50" relative="1" as="geometry">
                        <mxPoint x="635" y="1050" as="sourcePoint"/>
                        <mxPoint x="635" y="796" as="targetPoint"/>
                    </mxGeometry>
                </mxCell>
                <mxCell id="34" value="" style="endArrow=none;html=1;dashed=1;dashPattern=8 8;" edge="1" parent="1">
                    <mxGeometry width="50" height="50" relative="1" as="geometry">
                        <mxPoint x="105" y="120" as="sourcePoint"/>
                        <mxPoint x="105" y="1050" as="targetPoint"/>
                    </mxGeometry>
                </mxCell>
                <mxCell id="52" value="" style="endArrow=none;html=1;dashed=1;dashPattern=8 8;entryX=0.5;entryY=1;entryDx=0;entryDy=0;startArrow=none;" edge="1" parent="1" target="21">
                    <mxGeometry width="50" height="50" relative="1" as="geometry">
                        <mxPoint x="355" y="1050" as="sourcePoint"/>
                        <mxPoint x="355" y="796" as="targetPoint"/>
                    </mxGeometry>
                </mxCell>
                <mxCell id="54" value="" style="endArrow=none;html=1;dashed=1;dashPattern=8 8;entryX=0.5;entryY=1;entryDx=0;entryDy=0;" edge="1" parent="1" target="22">
                    <mxGeometry width="50" height="50" relative="1" as="geometry">
                        <mxPoint x="455" y="1050" as="sourcePoint"/>
                        <mxPoint x="455" y="796" as="targetPoint"/>
                    </mxGeometry>
                </mxCell>
                <mxCell id="56" value="" style="endArrow=none;html=1;dashed=1;dashPattern=8 8;entryX=0.5;entryY=1;entryDx=0;entryDy=0;" edge="1" parent="1" target="23">
                    <mxGeometry width="50" height="50" relative="1" as="geometry">
                        <mxPoint x="535" y="1050" as="sourcePoint"/>
                        <mxPoint x="535" y="796" as="targetPoint"/>
                    </mxGeometry>
                </mxCell>
                <mxCell id="49" value="sidepanel/index.tsx" style="rounded=0;strokeColor=#000000;fillColor=#f5f5f5;fontColor=#B3B3B3;labelBackgroundColor=#FFFFFF;labelBorderColor=none;spacingLeft=2;html=1;fontSize=9;fontFamily=Roboto Mono;fontSource=https%3A%2F%2Ffonts.googleapis.com%2Fcss%3Ffamily%3DRoboto%2BMono;verticalAlign=bottom;spacingTop=0;labelPosition=right;verticalLabelPosition=top;align=left;spacingBottom=-10;spacingRight=2;" vertex="1" parent="1">
                    <mxGeometry x="190" y="160" width="10" height="870" as="geometry"/>
                </mxCell>
                <mxCell id="141" value="loop" style="shape=umlFrame;whiteSpace=wrap;html=1;width=50;height=20;boundedLbl=1;verticalAlign=middle;align=center;spacingLeft=-4;strokeColor=#000000;fontSize=10;spacingTop=-1;fontStyle=1;movable=1;resizable=1;rotatable=1;deletable=1;editable=1;connectable=1;" vertex="1" parent="1">
                    <mxGeometry x="130" y="173" width="620" height="847" as="geometry"/>
                </mxCell>
                <mxCell id="3" value="User" style="shape=umlActor;verticalLabelPosition=top;verticalAlign=bottom;html=1;labelPosition=center;align=center;fontSize=10;spacingBottom=12;fontStyle=1" parent="1" vertex="1">
                    <mxGeometry x="95" y="80" width="20" height="40" as="geometry"/>
                </mxCell>
                <mxCell id="19" value="&lt;p style=&quot;line-height: 110%;&quot;&gt;&lt;font style=&quot;font-size: 10px;&quot;&gt;User &lt;br&gt;Interface&lt;/font&gt;&lt;/p&gt;" style="rounded=0;whiteSpace=wrap;html=1;strokeColor=default;" vertex="1" parent="1">
                    <mxGeometry x="160" y="80" width="70" height="40" as="geometry"/>
                </mxCell>
                <mxCell id="20" value="&lt;p style=&quot;line-height: 110%;&quot;&gt;&lt;font style=&quot;font-size: 10px;&quot;&gt;Background Workers&lt;/font&gt;&lt;/p&gt;" style="rounded=0;whiteSpace=wrap;html=1;strokeColor=default;" vertex="1" parent="1">
                    <mxGeometry x="240" y="80" width="70" height="40" as="geometry"/>
                </mxCell>
                <mxCell id="21" value="&lt;p style=&quot;line-height: 110%;&quot;&gt;&lt;font style=&quot;font-size: 10px;&quot;&gt;Content Scripts&lt;/font&gt;&lt;/p&gt;" style="rounded=0;whiteSpace=wrap;html=1;strokeColor=default;" vertex="1" parent="1">
                    <mxGeometry x="320" y="80" width="70" height="40" as="geometry"/>
                </mxCell>
                <mxCell id="22" value="&lt;p style=&quot;line-height: 110%;&quot;&gt;&lt;font style=&quot;font-size: 10px;&quot;&gt;Route &lt;br&gt;Handler&lt;/font&gt;&lt;/p&gt;" style="rounded=0;whiteSpace=wrap;html=1;strokeColor=default;" vertex="1" parent="1">
                    <mxGeometry x="420" y="80" width="70" height="40" as="geometry"/>
                </mxCell>
                <mxCell id="23" value="&lt;font style=&quot;font-size: 10px;&quot;&gt;Modules&lt;/font&gt;" style="rounded=0;whiteSpace=wrap;html=1;strokeColor=default;" vertex="1" parent="1">
                    <mxGeometry x="500" y="80" width="70" height="40" as="geometry"/>
                </mxCell>
                <mxCell id="33" value="" style="rounded=0;whiteSpace=wrap;html=1;strokeColor=#000000;fillColor=#f5f5f5;fontColor=#333333;" vertex="1" parent="1">
                    <mxGeometry x="100" y="140" width="10" height="890" as="geometry"/>
                </mxCell>
                <mxCell id="35" value="click &quot;Locate&quot;" style="endArrow=block;html=1;endFill=1;entryX=0;entryY=0;entryDx=0;entryDy=0;fontSize=10;" edge="1" parent="1" target="49">
                    <mxGeometry y="10" width="50" height="50" relative="1" as="geometry">
                        <mxPoint x="110" y="160" as="sourcePoint"/>
                        <mxPoint x="230" y="160" as="targetPoint"/>
                        <mxPoint as="offset"/>
                    </mxGeometry>
                </mxCell>
                <mxCell id="59" value="&lt;font style=&quot;font-size: 9px;&quot; data-font-src=&quot;https://fonts.googleapis.com/css?family=Roboto+Mono&quot; face=&quot;Roboto Mono&quot;&gt;process(RequestBody)&lt;/font&gt;" style="endArrow=block;html=1;endFill=1;entryX=0;entryY=0;entryDx=0;entryDy=0;fontSize=9;labelBackgroundColor=default;" edge="1" parent="1" target="68">
                    <mxGeometry x="0.7143" y="10" width="50" height="50" relative="1" as="geometry">
                        <mxPoint x="200" y="210" as="sourcePoint"/>
                        <mxPoint x="350" y="210.00000000000864" as="targetPoint"/>
                        <mxPoint as="offset"/>
                    </mxGeometry>
                </mxCell>
                <mxCell id="64" value="API SDK" style="rounded=0;whiteSpace=wrap;html=1;strokeColor=default;fontSize=10;" vertex="1" parent="1">
                    <mxGeometry x="600" y="80" width="70" height="40" as="geometry"/>
                </mxCell>
                <mxCell id="70" value="&lt;font style=&quot;font-size: 9px;&quot; data-font-src=&quot;https://fonts.googleapis.com/css?family=Roboto+Mono&quot; face=&quot;Roboto Mono&quot;&gt;process(RequestBody)&lt;/font&gt;" style="endArrow=block;html=1;endFill=1;entryX=0;entryY=0;entryDx=0;entryDy=0;fontSize=9;" edge="1" parent="1">
                    <mxGeometry x="0.6471" y="10" width="50" height="50" relative="1" as="geometry">
                        <mxPoint x="280" y="270" as="sourcePoint"/>
                        <mxPoint x="450" y="270.000000000005" as="targetPoint"/>
                        <mxPoint as="offset"/>
                    </mxGeometry>
                </mxCell>
                <mxCell id="71" value="app.py" style="rounded=0;strokeColor=#000000;fillColor=#f5f5f5;fontColor=#B3B3B3;labelBackgroundColor=default;labelBorderColor=none;spacingLeft=2;html=1;fontSize=9;fontFamily=Roboto Mono;fontSource=https%3A%2F%2Ffonts.googleapis.com%2Fcss%3Ffamily%3DRoboto%2BMono;verticalAlign=bottom;spacingTop=0;labelPosition=right;verticalLabelPosition=top;align=left;spacingBottom=-10;spacingRight=2;" vertex="1" parent="1">
                    <mxGeometry x="450" y="270" width="10" height="620" as="geometry"/>
                </mxCell>
                <mxCell id="72" value="parse.py" style="rounded=0;strokeColor=#000000;fillColor=#f5f5f5;fontColor=#B3B3B3;labelBackgroundColor=default;labelBorderColor=none;spacingLeft=2;html=1;fontSize=9;fontFamily=Roboto Mono;fontSource=https%3A%2F%2Ffonts.googleapis.com%2Fcss%3Ffamily%3DRoboto%2BMono;verticalAlign=bottom;spacingTop=0;labelPosition=right;verticalLabelPosition=top;align=left;spacingBottom=-10;spacingRight=2;" vertex="1" parent="1">
                    <mxGeometry x="530" y="300" width="10" height="20" as="geometry"/>
                </mxCell>
                <mxCell id="73" value="&lt;font style=&quot;font-size: 9px;&quot; data-font-src=&quot;https://fonts.googleapis.com/css?family=Roboto+Mono&quot; face=&quot;Roboto Mono&quot;&gt;parse(WebpageData)&lt;/font&gt;" style="endArrow=block;html=1;endFill=1;fontSize=9;entryX=0;entryY=0;entryDx=0;entryDy=0;" edge="1" parent="1" target="72">
                    <mxGeometry x="0.6" y="10" width="50" height="50" relative="1" as="geometry">
                        <mxPoint x="460" y="300" as="sourcePoint"/>
                        <mxPoint x="570" y="300" as="targetPoint"/>
                        <mxPoint as="offset"/>
                    </mxGeometry>
                </mxCell>
                <mxCell id="74" value="&lt;font style=&quot;font-size: 9px;&quot; data-font-src=&quot;https://fonts.googleapis.com/css?family=Roboto+Mono&quot; face=&quot;Roboto Mono&quot;&gt;ParsedWebpageData&lt;/font&gt;" style="endArrow=open;html=1;endFill=0;fontSize=9;exitX=0;exitY=1;exitDx=0;exitDy=0;" edge="1" parent="1">
                    <mxGeometry x="0.4286" y="-10" width="50" height="50" relative="1" as="geometry">
                        <mxPoint x="530" y="320" as="sourcePoint"/>
                        <mxPoint x="460" y="320" as="targetPoint"/>
                        <mxPoint as="offset"/>
                    </mxGeometry>
                </mxCell>
                <mxCell id="76" value="filter.py" style="rounded=0;strokeColor=#000000;fillColor=#f5f5f5;fontColor=#B3B3B3;labelBackgroundColor=default;labelBorderColor=none;spacingLeft=2;html=1;fontSize=9;fontFamily=Roboto Mono;fontSource=https%3A%2F%2Ffonts.googleapis.com%2Fcss%3Ffamily%3DRoboto%2BMono;verticalAlign=bottom;spacingTop=0;labelPosition=right;verticalLabelPosition=top;align=left;spacingBottom=-10;spacingRight=2;" vertex="1" parent="1">
                    <mxGeometry x="530" y="340" width="10" height="30" as="geometry"/>
                </mxCell>
                <mxCell id="77" value="&lt;font style=&quot;font-size: 9px;&quot; data-font-src=&quot;https://fonts.googleapis.com/css?family=Roboto+Mono&quot; face=&quot;Roboto Mono&quot;&gt;filter(ParsedWebpageData, Query)&lt;/font&gt;" style="endArrow=block;html=1;endFill=1;fontSize=9;entryX=0;entryY=0;entryDx=0;entryDy=0;" edge="1" parent="1" target="76">
                    <mxGeometry x="1" y="25" width="50" height="50" relative="1" as="geometry">
                        <mxPoint x="460" y="340" as="sourcePoint"/>
                        <mxPoint x="570" y="340" as="targetPoint"/>
                        <mxPoint x="23" y="15" as="offset"/>
                    </mxGeometry>
                </mxCell>
                <mxCell id="78" value="&lt;font style=&quot;font-size: 9px;&quot; data-font-src=&quot;https://fonts.googleapis.com/css?family=Roboto+Mono&quot; face=&quot;Roboto Mono&quot;&gt;Element[], ActionElement[]&lt;/font&gt;" style="endArrow=open;html=1;endFill=0;fontSize=9;exitX=0;exitY=1;exitDx=0;exitDy=0;" edge="1" parent="1">
                    <mxGeometry x="1" y="-11" width="50" height="50" relative="1" as="geometry">
                        <mxPoint x="530" y="370" as="sourcePoint"/>
                        <mxPoint x="460" y="369.9999999999999" as="targetPoint"/>
                        <mxPoint x="-5" y="1" as="offset"/>
                    </mxGeometry>
                </mxCell>
                <mxCell id="58" value="opt" style="shape=umlFrame;whiteSpace=wrap;html=1;width=50;height=20;boundedLbl=1;verticalAlign=middle;align=center;spacingLeft=-4;strokeColor=#000000;fontSize=10;spacingTop=-2;fontStyle=1;movable=1;resizable=1;rotatable=1;deletable=1;editable=1;connectable=1;" vertex="1" parent="1">
                    <mxGeometry x="390" y="380" width="350" height="220" as="geometry"/>
                </mxCell>
                <mxCell id="79" value="&lt;span style=&quot;color: rgb(0, 0, 0); font-family: &amp;quot;Roboto Mono&amp;quot;; font-size: 9px; font-style: normal; font-variant-ligatures: normal; font-variant-caps: normal; letter-spacing: normal; orphans: 2; text-align: center; text-indent: 0px; text-transform: none; widows: 2; word-spacing: 0px; -webkit-text-stroke-width: 0px; background-color: rgb(255, 255, 255); text-decoration-thickness: initial; text-decoration-style: initial; text-decoration-color: initial; float: none; display: inline !important;&quot;&gt;[len(Element[]) &amp;gt; 0]&lt;/span&gt;" style="text;whiteSpace=wrap;html=1;fontSize=9;fontFamily=Roboto Mono;fontColor=#B3B3B3;verticalAlign=middle;fontStyle=1;" vertex="1" parent="1">
                    <mxGeometry x="462" y="380" width="130" height="20" as="geometry"/>
                </mxCell>
                <mxCell id="80" value="extract.py" style="rounded=0;strokeColor=#000000;fillColor=#f5f5f5;fontColor=#B3B3B3;labelBackgroundColor=default;labelBorderColor=none;spacingLeft=2;html=1;fontSize=9;fontFamily=Roboto Mono;fontSource=https%3A%2F%2Ffonts.googleapis.com%2Fcss%3Ffamily%3DRoboto%2BMono;verticalAlign=bottom;spacingTop=0;labelPosition=right;verticalLabelPosition=top;align=left;spacingBottom=-10;spacingRight=2;" vertex="1" parent="1">
                    <mxGeometry x="530" y="420" width="10" height="170" as="geometry"/>
                </mxCell>
                <mxCell id="81" value="&lt;font style=&quot;font-size: 9px;&quot; data-font-src=&quot;https://fonts.googleapis.com/css?family=Roboto+Mono&quot; face=&quot;Roboto Mono&quot;&gt;extract(Element[], Query)&lt;/font&gt;" style="endArrow=block;html=1;endFill=1;fontSize=9;entryX=0;entryY=0;entryDx=0;entryDy=0;" edge="1" parent="1" target="80">
                    <mxGeometry x="1" y="12" width="50" height="50" relative="1" as="geometry">
                        <mxPoint x="460" y="420" as="sourcePoint"/>
                        <mxPoint x="530" y="420" as="targetPoint"/>
                        <mxPoint x="6" y="2" as="offset"/>
                    </mxGeometry>
                </mxCell>
                <mxCell id="82" value="models/app.py" style="rounded=0;strokeColor=#000000;fillColor=#f5f5f5;fontColor=#B3B3B3;labelBackgroundColor=default;labelBorderColor=none;spacingLeft=2;html=1;fontSize=9;fontFamily=Roboto Mono;fontSource=https%3A%2F%2Ffonts.googleapis.com%2Fcss%3Ffamily%3DRoboto%2BMono;verticalAlign=bottom;spacingTop=0;labelPosition=right;verticalLabelPosition=top;align=left;spacingBottom=-10;spacingRight=2;" vertex="1" parent="1">
                    <mxGeometry x="630" y="460" width="10" height="20" as="geometry"/>
                </mxCell>
                <mxCell id="83" value="&lt;font style=&quot;font-size: 9px;&quot; data-font-src=&quot;https://fonts.googleapis.com/css?family=Roboto+Mono&quot; face=&quot;Roboto Mono&quot;&gt;extract_mrebel(Element[])&lt;/font&gt;" style="endArrow=block;html=1;endFill=1;fontSize=9;entryX=1;entryY=0;entryDx=0;entryDy=0;rounded=0;align=left;" edge="1" parent="1">
                    <mxGeometry x="0.0462" y="7" width="50" height="50" relative="1" as="geometry">
                        <mxPoint x="540" y="430" as="sourcePoint"/>
                        <mxPoint x="545" y="440" as="targetPoint"/>
                        <mxPoint as="offset"/>
                        <Array as="points">
                            <mxPoint x="570" y="430"/>
                            <mxPoint x="570" y="440"/>
                        </Array>
                    </mxGeometry>
                </mxCell>
                <mxCell id="84" value="&lt;font style=&quot;font-size: 9px;&quot; data-font-src=&quot;https://fonts.googleapis.com/css?family=Roboto+Mono&quot; face=&quot;Roboto Mono&quot;&gt;Relation[]&lt;/font&gt;" style="endArrow=open;html=1;endFill=0;dashed=1;fontSize=9;entryX=1;entryY=1;entryDx=0;entryDy=0;exitX=0;exitY=1;exitDx=0;exitDy=0;" edge="1" parent="1">
                    <mxGeometry x="-0.0909" y="-10" width="50" height="50" relative="1" as="geometry">
                        <mxPoint x="630" y="480" as="sourcePoint"/>
                        <mxPoint x="545" y="480" as="targetPoint"/>
                        <mxPoint as="offset"/>
                    </mxGeometry>
                </mxCell>
                <mxCell id="85" value="LLM API" style="rounded=0;strokeColor=#000000;fillColor=#f5f5f5;fontColor=#B3B3B3;labelBackgroundColor=default;labelBorderColor=none;spacingLeft=2;html=1;fontSize=9;fontFamily=Roboto Mono;fontSource=https%3A%2F%2Ffonts.googleapis.com%2Fcss%3Ffamily%3DRoboto%2BMono;verticalAlign=bottom;spacingTop=0;labelPosition=right;verticalLabelPosition=top;align=left;spacingBottom=-12;spacingRight=2;fontStyle=2;" vertex="1" parent="1">
                    <mxGeometry x="630" y="540" width="10" height="20" as="geometry"/>
                </mxCell>
                <mxCell id="86" value="&lt;font face=&quot;Roboto Mono&quot;&gt;&lt;i&gt;litellm&lt;/i&gt;.completion(prompt)&lt;/font&gt;" style="endArrow=block;html=1;endFill=1;fontSize=9;entryX=0;entryY=0;entryDx=0;entryDy=0;" edge="1" parent="1" target="85">
                    <mxGeometry x="1" y="10" width="50" height="50" relative="1" as="geometry">
                        <mxPoint x="540" y="540" as="sourcePoint"/>
                        <mxPoint x="620" y="540" as="targetPoint"/>
                        <mxPoint as="offset"/>
                    </mxGeometry>
                </mxCell>
                <mxCell id="87" value="&lt;font style=&quot;font-size: 9px;&quot; data-font-src=&quot;https://fonts.googleapis.com/css?family=Roboto+Mono&quot; face=&quot;Roboto Mono&quot;&gt;response&lt;/font&gt;" style="endArrow=open;html=1;endFill=0;dashed=1;fontSize=9;exitX=0;exitY=1;exitDx=0;exitDy=0;" edge="1" parent="1">
                    <mxGeometry x="-0.0895" y="-10" width="50" height="50" relative="1" as="geometry">
                        <mxPoint x="630" y="560" as="sourcePoint"/>
                        <mxPoint x="545" y="560" as="targetPoint"/>
                        <mxPoint as="offset"/>
                    </mxGeometry>
                </mxCell>
                <mxCell id="88" value="&lt;font style=&quot;font-size: 9px;&quot; data-font-src=&quot;https://fonts.googleapis.com/css?family=Roboto+Mono&quot; face=&quot;Roboto Mono&quot;&gt;Relation[]&lt;/font&gt;" style="endArrow=open;html=1;endFill=0;fontSize=9;" edge="1" parent="1">
                    <mxGeometry x="-0.0571" y="-11" width="50" height="50" relative="1" as="geometry">
                        <mxPoint x="530" y="590" as="sourcePoint"/>
                        <mxPoint x="460" y="590" as="targetPoint"/>
                        <mxPoint as="offset"/>
                    </mxGeometry>
                </mxCell>
                <mxCell id="89" value="opt" style="shape=umlFrame;whiteSpace=wrap;html=1;width=50;height=20;boundedLbl=1;verticalAlign=middle;align=center;spacingLeft=-4;strokeColor=#000000;fontSize=10;spacingTop=-2;fontStyle=1;" vertex="1" parent="1">
                    <mxGeometry x="390" y="610" width="350" height="130" as="geometry"/>
                </mxCell>
                <mxCell id="90" value="&lt;span style=&quot;color: rgb(0, 0, 0); font-family: &amp;quot;Roboto Mono&amp;quot;; font-size: 9px; font-style: normal; font-variant-ligatures: normal; font-variant-caps: normal; letter-spacing: normal; orphans: 2; text-align: center; text-indent: 0px; text-transform: none; widows: 2; word-spacing: 0px; -webkit-text-stroke-width: 0px; background-color: rgb(255, 255, 255); text-decoration-thickness: initial; text-decoration-style: initial; text-decoration-color: initial; float: none; display: inline !important;&quot;&gt;[len(Relation[]) &amp;gt; 0]&lt;/span&gt;" style="text;whiteSpace=wrap;html=1;fontSize=9;fontFamily=Roboto Mono;fontColor=#B3B3B3;verticalAlign=middle;fontStyle=1;" vertex="1" parent="1">
                    <mxGeometry x="462" y="610" width="130" height="20" as="geometry"/>
                </mxCell>
                <mxCell id="91" value="evaluate.py" style="rounded=0;strokeColor=#000000;fillColor=#f5f5f5;fontColor=#B3B3B3;labelBackgroundColor=default;labelBorderColor=none;spacingLeft=2;html=1;fontSize=9;fontFamily=Roboto Mono;fontSource=https%3A%2F%2Ffonts.googleapis.com%2Fcss%3Ffamily%3DRoboto%2BMono;verticalAlign=bottom;spacingTop=0;labelPosition=right;verticalLabelPosition=top;align=left;spacingBottom=-10;spacingRight=2;" vertex="1" parent="1">
                    <mxGeometry x="530" y="650" width="10" height="80" as="geometry"/>
                </mxCell>
                <mxCell id="92" value="&lt;font style=&quot;font-size: 9px;&quot; data-font-src=&quot;https://fonts.googleapis.com/css?family=Roboto+Mono&quot; face=&quot;Roboto Mono&quot;&gt;evaluate(Relation[], Query)&lt;/font&gt;" style="endArrow=block;html=1;endFill=1;fontSize=9;" edge="1" parent="1">
                    <mxGeometry x="1" y="14" width="50" height="50" relative="1" as="geometry">
                        <mxPoint x="460" y="650" as="sourcePoint"/>
                        <mxPoint x="530" y="650" as="targetPoint"/>
                        <mxPoint x="10" y="4" as="offset"/>
                    </mxGeometry>
                </mxCell>
                <mxCell id="99" value="&lt;font style=&quot;font-size: 9px;&quot; data-font-src=&quot;https://fonts.googleapis.com/css?family=Roboto+Mono&quot; face=&quot;Roboto Mono&quot;&gt;&lt;i&gt;requests&lt;/i&gt;.post(contents)&lt;/font&gt;" style="endArrow=block;html=1;endFill=1;fontSize=9;entryX=0;entryY=0;entryDx=0;entryDy=0;" edge="1" parent="1" target="82">
                    <mxGeometry x="0.7647" y="10" width="50" height="50" relative="1" as="geometry">
                        <mxPoint x="545.0000000000002" y="460" as="sourcePoint"/>
                        <mxPoint x="655.0000000000002" y="460" as="targetPoint"/>
                        <mxPoint as="offset"/>
                    </mxGeometry>
                </mxCell>
                <mxCell id="100" value="" style="rounded=0;labelBackgroundColor=default;labelBorderColor=none;spacingLeft=0;html=1;fontSize=9;fontFamily=Roboto Mono;fontSource=https%3A%2F%2Ffonts.googleapis.com%2Fcss%3Ffamily%3DRoboto%2BMono;verticalAlign=top;spacingTop=1;labelPosition=center;verticalLabelPosition=middle;align=center;" vertex="1" parent="1">
                    <mxGeometry x="535" y="440" width="10" height="50" as="geometry"/>
                </mxCell>
                <mxCell id="101" value="&lt;font style=&quot;font-size: 9px;&quot; data-font-src=&quot;https://fonts.googleapis.com/css?family=Roboto+Mono&quot; face=&quot;Roboto Mono&quot;&gt;Relation[]&lt;/font&gt;" style="endArrow=open;html=1;endFill=0;dashed=1;fontSize=9;entryX=1;entryY=1;entryDx=0;entryDy=0;exitX=1;exitY=1;exitDx=0;exitDy=0;rounded=0;align=left;" edge="1" parent="1">
                    <mxGeometry x="-0.1077" y="7" width="50" height="50" relative="1" as="geometry">
                        <mxPoint x="545" y="490" as="sourcePoint"/>
                        <mxPoint x="540" y="500" as="targetPoint"/>
                        <mxPoint as="offset"/>
                        <Array as="points">
                            <mxPoint x="570" y="490"/>
                            <mxPoint x="570" y="500"/>
                        </Array>
                    </mxGeometry>
                </mxCell>
                <mxCell id="103" value="" style="rounded=0;labelBackgroundColor=default;labelBorderColor=none;spacingLeft=0;html=1;fontSize=9;fontFamily=Roboto Mono;fontSource=https%3A%2F%2Ffonts.googleapis.com%2Fcss%3Ffamily%3DRoboto%2BMono;verticalAlign=top;spacingTop=1;labelPosition=center;verticalLabelPosition=middle;align=center;" vertex="1" parent="1">
                    <mxGeometry x="535" y="520" width="10" height="50" as="geometry"/>
                </mxCell>
                <mxCell id="104" value="&lt;span style=&quot;font-family: &amp;quot;Roboto Mono&amp;quot;; text-align: center;&quot;&gt;extract_llm(Element[], Query)&lt;/span&gt;" style="endArrow=block;html=1;endFill=1;fontSize=9;entryX=1;entryY=0;entryDx=0;entryDy=0;rounded=0;align=left;" edge="1" parent="1">
                    <mxGeometry x="0.0513" y="7" width="50" height="50" relative="1" as="geometry">
                        <mxPoint x="540" y="510" as="sourcePoint"/>
                        <mxPoint x="545" y="520" as="targetPoint"/>
                        <mxPoint as="offset"/>
                        <Array as="points">
                            <mxPoint x="570" y="510"/>
                            <mxPoint x="570" y="520"/>
                        </Array>
                    </mxGeometry>
                </mxCell>
                <mxCell id="105" value="&lt;font style=&quot;font-size: 9px;&quot; data-font-src=&quot;https://fonts.googleapis.com/css?family=Roboto+Mono&quot; face=&quot;Roboto Mono&quot;&gt;Relation[]&lt;/font&gt;" style="endArrow=open;html=1;endFill=0;dashed=1;fontSize=9;entryX=1;entryY=1;entryDx=0;entryDy=0;exitX=1;exitY=1;exitDx=0;exitDy=0;rounded=0;align=left;" edge="1" parent="1">
                    <mxGeometry x="-0.1077" y="7" width="50" height="50" relative="1" as="geometry">
                        <mxPoint x="545" y="570" as="sourcePoint"/>
                        <mxPoint x="540" y="580" as="targetPoint"/>
                        <mxPoint as="offset"/>
                        <Array as="points">
                            <mxPoint x="570" y="570"/>
                            <mxPoint x="570" y="580"/>
                        </Array>
                    </mxGeometry>
                </mxCell>
                <mxCell id="106" value="LLM API" style="rounded=0;strokeColor=#000000;fillColor=#f5f5f5;fontColor=#B3B3B3;labelBackgroundColor=default;labelBorderColor=none;spacingLeft=2;html=1;fontSize=9;fontFamily=Roboto Mono;fontSource=https%3A%2F%2Ffonts.googleapis.com%2Fcss%3Ffamily%3DRoboto%2BMono;verticalAlign=bottom;spacingTop=0;labelPosition=right;verticalLabelPosition=top;align=left;spacingBottom=-12;spacingRight=2;fontStyle=2;" vertex="1" parent="1">
                    <mxGeometry x="630" y="680" width="10" height="20" as="geometry"/>
                </mxCell>
                <mxCell id="107" value="&lt;font face=&quot;Roboto Mono&quot;&gt;&lt;i&gt;litellm&lt;/i&gt;.completion(prompt)&lt;/font&gt;" style="endArrow=block;html=1;endFill=1;fontSize=9;entryX=0;entryY=0;entryDx=0;entryDy=0;" edge="1" parent="1" target="106">
                    <mxGeometry x="1" y="10" width="50" height="50" relative="1" as="geometry">
                        <mxPoint x="540" y="680" as="sourcePoint"/>
                        <mxPoint x="620" y="680" as="targetPoint"/>
                        <mxPoint as="offset"/>
                    </mxGeometry>
                </mxCell>
                <mxCell id="108" value="&lt;font style=&quot;font-size: 9px;&quot; data-font-src=&quot;https://fonts.googleapis.com/css?family=Roboto+Mono&quot; face=&quot;Roboto Mono&quot;&gt;response&lt;/font&gt;" style="endArrow=open;html=1;endFill=0;dashed=1;fontSize=9;exitX=0;exitY=1;exitDx=0;exitDy=0;" edge="1" parent="1">
                    <mxGeometry x="-0.0588" y="-10" width="50" height="50" relative="1" as="geometry">
                        <mxPoint x="630" y="700" as="sourcePoint"/>
                        <mxPoint x="545" y="700" as="targetPoint"/>
                        <mxPoint as="offset"/>
                    </mxGeometry>
                </mxCell>
                <mxCell id="109" value="" style="rounded=0;labelBackgroundColor=default;labelBorderColor=none;spacingLeft=0;html=1;fontSize=9;fontFamily=Roboto Mono;fontSource=https%3A%2F%2Ffonts.googleapis.com%2Fcss%3Ffamily%3DRoboto%2BMono;verticalAlign=top;spacingTop=1;labelPosition=center;verticalLabelPosition=middle;align=center;" vertex="1" parent="1">
                    <mxGeometry x="535" y="670" width="10" height="40" as="geometry"/>
                </mxCell>
                <mxCell id="110" value="&lt;font style=&quot;font-size: 9px;&quot; data-font-src=&quot;https://fonts.googleapis.com/css?family=Roboto+Mono&quot; face=&quot;Roboto Mono&quot;&gt;completed, Relation[]&lt;/font&gt;" style="endArrow=open;html=1;endFill=0;dashed=1;fontSize=9;entryX=1;entryY=1;entryDx=0;entryDy=0;exitX=1;exitY=1;exitDx=0;exitDy=0;rounded=0;align=left;" edge="1" parent="1">
                    <mxGeometry x="-0.1093" y="7" width="50" height="50" relative="1" as="geometry">
                        <mxPoint x="545" y="710" as="sourcePoint"/>
                        <mxPoint x="540" y="720" as="targetPoint"/>
                        <mxPoint as="offset"/>
                        <Array as="points">
                            <mxPoint x="570" y="710"/>
                            <mxPoint x="570" y="720"/>
                        </Array>
                    </mxGeometry>
                </mxCell>
                <mxCell id="111" value="&lt;span style=&quot;font-family: &amp;quot;Roboto Mono&amp;quot;; text-align: left;&quot;&gt;completed, &lt;br&gt;Relation[]&lt;/span&gt;" style="endArrow=open;html=1;endFill=0;fontSize=9;" edge="1" parent="1">
                    <mxGeometry x="-0.0286" y="-16" width="50" height="50" relative="1" as="geometry">
                        <mxPoint x="530" y="730" as="sourcePoint"/>
                        <mxPoint x="460" y="730" as="targetPoint"/>
                        <mxPoint as="offset"/>
                    </mxGeometry>
                </mxCell>
                <mxCell id="112" value="opt" style="shape=umlFrame;whiteSpace=wrap;html=1;width=50;height=20;boundedLbl=1;verticalAlign=middle;align=center;spacingLeft=-4;strokeColor=#000000;fontSize=10;spacingTop=-2;fontStyle=1;" vertex="1" parent="1">
                    <mxGeometry x="390" y="750" width="350" height="130" as="geometry"/>
                </mxCell>
                <mxCell id="113" value="&lt;span style=&quot;color: rgb(0, 0, 0); font-family: &amp;quot;Roboto Mono&amp;quot;; font-size: 9px; font-style: normal; font-variant-ligatures: normal; font-variant-caps: normal; letter-spacing: normal; orphans: 2; text-align: center; text-indent: 0px; text-transform: none; widows: 2; word-spacing: 0px; -webkit-text-stroke-width: 0px; background-color: rgb(255, 255, 255); text-decoration-thickness: initial; text-decoration-style: initial; text-decoration-color: initial; float: none; display: inline !important;&quot;&gt;[completed == false]&lt;/span&gt;" style="text;whiteSpace=wrap;html=1;fontSize=9;fontFamily=Roboto Mono;fontColor=#B3B3B3;verticalAlign=middle;fontStyle=1;" vertex="1" parent="1">
                    <mxGeometry x="462" y="750" width="130" height="20" as="geometry"/>
                </mxCell>
                <mxCell id="114" value="act.py" style="rounded=0;strokeColor=#000000;fillColor=#f5f5f5;fontColor=#B3B3B3;labelBackgroundColor=default;labelBorderColor=none;spacingLeft=2;html=1;fontSize=9;fontFamily=Roboto Mono;fontSource=https%3A%2F%2Ffonts.googleapis.com%2Fcss%3Ffamily%3DRoboto%2BMono;verticalAlign=bottom;spacingTop=0;labelPosition=right;verticalLabelPosition=top;align=left;spacingBottom=-10;spacingRight=2;" vertex="1" parent="1">
                    <mxGeometry x="530" y="790" width="10" height="80" as="geometry"/>
                </mxCell>
                <mxCell id="115" value="&lt;font style=&quot;font-size: 9px;&quot; data-font-src=&quot;https://fonts.googleapis.com/css?family=Roboto+Mono&quot; face=&quot;Roboto Mono&quot;&gt;act(ActionElement[], Query)&lt;/font&gt;" style="endArrow=block;html=1;endFill=1;fontSize=9;" edge="1" parent="1">
                    <mxGeometry x="1" y="14" width="50" height="50" relative="1" as="geometry">
                        <mxPoint x="460" y="790" as="sourcePoint"/>
                        <mxPoint x="530" y="790" as="targetPoint"/>
                        <mxPoint x="10" y="4" as="offset"/>
                    </mxGeometry>
                </mxCell>
                <mxCell id="116" value="LLM API" style="rounded=0;strokeColor=#000000;fillColor=#f5f5f5;fontColor=#B3B3B3;labelBackgroundColor=default;labelBorderColor=none;spacingLeft=2;html=1;fontSize=9;fontFamily=Roboto Mono;fontSource=https%3A%2F%2Ffonts.googleapis.com%2Fcss%3Ffamily%3DRoboto%2BMono;verticalAlign=bottom;spacingTop=0;labelPosition=right;verticalLabelPosition=top;align=left;spacingBottom=-12;spacingRight=2;fontStyle=2;" vertex="1" parent="1">
                    <mxGeometry x="630" y="820" width="10" height="20" as="geometry"/>
                </mxCell>
                <mxCell id="117" value="&lt;font face=&quot;Roboto Mono&quot;&gt;&lt;i&gt;litellm&lt;/i&gt;.completion(prompt)&lt;/font&gt;" style="endArrow=block;html=1;endFill=1;fontSize=9;entryX=0;entryY=0;entryDx=0;entryDy=0;" edge="1" parent="1" target="116">
                    <mxGeometry x="1" y="10" width="50" height="50" relative="1" as="geometry">
                        <mxPoint x="540" y="820" as="sourcePoint"/>
                        <mxPoint x="620" y="820" as="targetPoint"/>
                        <mxPoint as="offset"/>
                    </mxGeometry>
                </mxCell>
                <mxCell id="118" value="&lt;font style=&quot;font-size: 9px;&quot; data-font-src=&quot;https://fonts.googleapis.com/css?family=Roboto+Mono&quot; face=&quot;Roboto Mono&quot;&gt;response&lt;/font&gt;" style="endArrow=open;html=1;endFill=0;dashed=1;fontSize=9;exitX=0;exitY=1;exitDx=0;exitDy=0;" edge="1" parent="1">
                    <mxGeometry x="-0.0588" y="-10" width="50" height="50" relative="1" as="geometry">
                        <mxPoint x="630" y="840" as="sourcePoint"/>
                        <mxPoint x="545" y="840" as="targetPoint"/>
                        <mxPoint as="offset"/>
                    </mxGeometry>
                </mxCell>
                <mxCell id="119" value="" style="rounded=0;labelBackgroundColor=default;labelBorderColor=none;spacingLeft=0;html=1;fontSize=9;fontFamily=Roboto Mono;fontSource=https%3A%2F%2Ffonts.googleapis.com%2Fcss%3Ffamily%3DRoboto%2BMono;verticalAlign=top;spacingTop=1;labelPosition=center;verticalLabelPosition=middle;align=center;" vertex="1" parent="1">
                    <mxGeometry x="535" y="810" width="10" height="50" as="geometry"/>
                </mxCell>
                <mxCell id="120" value="&lt;font style=&quot;font-size: 9px;&quot; data-font-src=&quot;https://fonts.googleapis.com/css?family=Roboto+Mono&quot; face=&quot;Roboto Mono&quot;&gt;Action&lt;/font&gt;" style="endArrow=open;html=1;endFill=0;dashed=1;fontSize=9;entryX=1;entryY=1;entryDx=0;entryDy=0;exitX=1;exitY=1;exitDx=0;exitDy=0;rounded=0;align=left;" edge="1" parent="1">
                    <mxGeometry x="-0.1093" y="7" width="50" height="50" relative="1" as="geometry">
                        <mxPoint x="545" y="850" as="sourcePoint"/>
                        <mxPoint x="540" y="860" as="targetPoint"/>
                        <mxPoint as="offset"/>
                        <Array as="points">
                            <mxPoint x="570" y="850"/>
                            <mxPoint x="570" y="860"/>
                        </Array>
                    </mxGeometry>
                </mxCell>
                <mxCell id="121" value="&lt;span style=&quot;font-family: &amp;quot;Roboto Mono&amp;quot;; text-align: left;&quot;&gt;Action&lt;/span&gt;" style="endArrow=open;html=1;endFill=0;fontSize=9;" edge="1" parent="1">
                    <mxGeometry y="-10" width="50" height="50" relative="1" as="geometry">
                        <mxPoint x="530" y="870" as="sourcePoint"/>
                        <mxPoint x="460" y="870" as="targetPoint"/>
                        <mxPoint as="offset"/>
                    </mxGeometry>
                </mxCell>
                <mxCell id="122" value="&lt;font style=&quot;font-size: 9px;&quot; data-font-src=&quot;https://fonts.googleapis.com/css?family=Roboto+Mono&quot; face=&quot;Roboto Mono&quot;&gt;ResponseBody&lt;/font&gt;" style="endArrow=open;html=1;endFill=0;dashed=1;fontSize=9;exitX=0;exitY=1;exitDx=0;exitDy=0;" edge="1" parent="1">
                    <mxGeometry x="-0.1111" y="10" width="50" height="50" relative="1" as="geometry">
                        <mxPoint x="450" y="890" as="sourcePoint"/>
                        <mxPoint x="280" y="890" as="targetPoint"/>
                        <mxPoint as="offset"/>
                    </mxGeometry>
                </mxCell>
                <mxCell id="126" value="opt" style="shape=umlFrame;whiteSpace=wrap;html=1;width=50;height=20;boundedLbl=1;verticalAlign=middle;align=center;spacingLeft=-4;strokeColor=#000000;fontSize=10;spacingTop=-2;fontStyle=1;" vertex="1" parent="1">
                    <mxGeometry x="210" y="909" width="250" height="71" as="geometry"/>
                </mxCell>
                <mxCell id="127" value="&lt;span style=&quot;color: rgb(0, 0, 0); font-family: &amp;quot;Roboto Mono&amp;quot;; font-size: 9px; font-style: normal; font-variant-ligatures: normal; font-variant-caps: normal; letter-spacing: normal; orphans: 2; text-align: center; text-indent: 0px; text-transform: none; widows: 2; word-spacing: 0px; -webkit-text-stroke-width: 0px; background-color: rgb(255, 255, 255); text-decoration-thickness: initial; text-decoration-style: initial; text-decoration-color: initial; float: none; display: inline !important;&quot;&gt;[response.next_action == false]&lt;/span&gt;" style="text;whiteSpace=wrap;html=1;fontSize=9;fontFamily=Roboto Mono;fontColor=#B3B3B3;verticalAlign=middle;fontStyle=1;" vertex="1" parent="1">
                    <mxGeometry x="282" y="909" width="170" height="20" as="geometry"/>
                </mxCell>
                <mxCell id="128" value="&lt;font style=&quot;font-size: 9px;&quot; data-font-src=&quot;https://fonts.googleapis.com/css?family=Roboto+Mono&quot; face=&quot;Roboto Mono&quot;&gt;ResponseBody&lt;/font&gt;" style="endArrow=open;html=1;endFill=0;dashed=1;fontSize=9;exitX=0;exitY=1;exitDx=0;exitDy=0;" edge="1" parent="1">
                    <mxGeometry y="10" width="50" height="50" relative="1" as="geometry">
                        <mxPoint x="270" y="989.9999999999959" as="sourcePoint"/>
                        <mxPoint x="200" y="990" as="targetPoint"/>
                        <mxPoint as="offset"/>
                    </mxGeometry>
                </mxCell>
                <mxCell id="129" value="&lt;font style=&quot;font-size: 10px;&quot; data-font-src=&quot;https://fonts.googleapis.com/css?family=Roboto+Mono&quot;&gt;display results&lt;/font&gt;" style="endArrow=open;html=1;endFill=0;fontSize=9;" edge="1" parent="1">
                    <mxGeometry y="10" width="50" height="50" relative="1" as="geometry">
                        <mxPoint x="190" y="1000" as="sourcePoint"/>
                        <mxPoint x="110" y="1000" as="targetPoint"/>
                        <mxPoint as="offset"/>
                    </mxGeometry>
                </mxCell>
                <mxCell id="137" value="&lt;p style=&quot;line-height: 110%; font-size: 10px;&quot;&gt;&lt;span style=&quot;font-size: 10px;&quot;&gt;Browser Extension&lt;/span&gt;&lt;/p&gt;" style="rounded=0;whiteSpace=wrap;html=1;strokeColor=default;fontStyle=1;fontSize=10;" vertex="1" parent="1">
                    <mxGeometry x="160" y="50" width="230" height="20" as="geometry"/>
                </mxCell>
                <mxCell id="138" value="&lt;p style=&quot;line-height: 110%;&quot;&gt;&lt;span style=&quot;font-size: 10px;&quot;&gt;API Server&lt;/span&gt;&lt;/p&gt;" style="rounded=0;whiteSpace=wrap;html=1;strokeColor=default;fontStyle=1" vertex="1" parent="1">
                    <mxGeometry x="420" y="50" width="150" height="20" as="geometry"/>
                </mxCell>
                <mxCell id="142" value="&lt;span style=&quot;color: rgb(0, 0, 0); font-family: &amp;quot;Roboto Mono&amp;quot;; font-size: 9px; font-style: normal; font-variant-ligatures: normal; font-variant-caps: normal; letter-spacing: normal; orphans: 2; text-align: center; text-indent: 0px; text-transform: none; widows: 2; word-spacing: 0px; -webkit-text-stroke-width: 0px; background-color: rgb(255, 255, 255); text-decoration-thickness: initial; text-decoration-style: initial; text-decoration-color: initial; float: none; display: inline !important;&quot;&gt;[continous == true &amp;amp;&amp;amp; response.isComplete == false]&lt;/span&gt;" style="text;whiteSpace=wrap;html=1;fontSize=9;fontFamily=Roboto Mono;fontColor=#B3B3B3;verticalAlign=middle;fontStyle=1;" vertex="1" parent="1">
                    <mxGeometry x="202" y="173" width="280" height="20" as="geometry"/>
                </mxCell>
                <mxCell id="68" value="process.ts" style="rounded=0;strokeColor=#000000;fillColor=#f5f5f5;fontColor=#B3B3B3;labelBackgroundColor=default;labelBorderColor=none;spacingLeft=2;html=1;fontSize=9;fontFamily=Roboto Mono;fontSource=https%3A%2F%2Ffonts.googleapis.com%2Fcss%3Ffamily%3DRoboto%2BMono;verticalAlign=bottom;spacingTop=0;labelPosition=right;verticalLabelPosition=top;align=left;spacingBottom=-10;spacingRight=2;" vertex="1" parent="1">
                    <mxGeometry x="270" y="210" width="10" height="780" as="geometry"/>
                </mxCell>
                <mxCell id="147" value="&lt;span style=&quot;text-align: right;&quot;&gt;get-webpage-data.ts&lt;/span&gt;" style="rounded=0;strokeColor=#000000;fillColor=#f5f5f5;fontColor=#B3B3B3;labelBackgroundColor=default;labelBorderColor=none;spacingLeft=2;html=1;fontSize=9;fontFamily=Roboto Mono;fontSource=https%3A%2F%2Ffonts.googleapis.com%2Fcss%3Ffamily%3DRoboto%2BMono;verticalAlign=bottom;spacingTop=0;labelPosition=right;verticalLabelPosition=top;align=left;spacingBottom=-10;spacingRight=2;" vertex="1" parent="1">
                    <mxGeometry x="350" y="240" width="10" height="20" as="geometry"/>
                </mxCell>
                <mxCell id="148" value="&lt;span style=&quot;font-family: &amp;quot;Roboto Mono&amp;quot;;&quot;&gt;getWebpageData()&lt;/span&gt;" style="endArrow=block;html=1;endFill=1;fontSize=9;entryX=0;entryY=0;entryDx=0;entryDy=0;" edge="1" parent="1" target="147">
                    <mxGeometry x="0.4286" y="10" width="50" height="50" relative="1" as="geometry">
                        <mxPoint x="280" y="240" as="sourcePoint"/>
                        <mxPoint x="390" y="240" as="targetPoint"/>
                        <mxPoint as="offset"/>
                    </mxGeometry>
                </mxCell>
                <mxCell id="149" value="&lt;span style=&quot;font-family: &amp;quot;Roboto Mono&amp;quot;;&quot;&gt;WebpageData&lt;/span&gt;" style="endArrow=open;html=1;endFill=0;fontSize=9;exitX=0;exitY=1;exitDx=0;exitDy=0;dashed=1;" edge="1" parent="1">
                    <mxGeometry y="-10" width="50" height="50" relative="1" as="geometry">
                        <mxPoint x="350" y="260" as="sourcePoint"/>
                        <mxPoint x="280" y="260" as="targetPoint"/>
                        <mxPoint as="offset"/>
                    </mxGeometry>
                </mxCell>
                <mxCell id="154" value="&lt;span style=&quot;text-align: right;&quot;&gt;execute-action.ts&lt;/span&gt;" style="rounded=0;strokeColor=#000000;fillColor=#f5f5f5;fontColor=#B3B3B3;labelBackgroundColor=default;labelBorderColor=none;spacingLeft=2;html=1;fontSize=9;fontFamily=Roboto Mono;fontSource=https%3A%2F%2Ffonts.googleapis.com%2Fcss%3Ffamily%3DRoboto%2BMono;verticalAlign=bottom;spacingTop=0;labelPosition=right;verticalLabelPosition=top;align=left;spacingBottom=-10;spacingRight=2;" vertex="1" parent="1">
                    <mxGeometry x="350" y="949" width="10" height="20" as="geometry"/>
                </mxCell>
                <mxCell id="155" value="&lt;span style=&quot;font-family: &amp;quot;Roboto Mono&amp;quot;;&quot;&gt;executeAction(Action)&lt;/span&gt;" style="endArrow=block;html=1;endFill=1;fontSize=9;entryX=0;entryY=0;entryDx=0;entryDy=0;" edge="1" parent="1" target="154">
                    <mxGeometry x="0.7143" y="9" width="50" height="50" relative="1" as="geometry">
                        <mxPoint x="280" y="949" as="sourcePoint"/>
                        <mxPoint x="390" y="949" as="targetPoint"/>
                        <mxPoint as="offset"/>
                    </mxGeometry>
                </mxCell>
                <mxCell id="156" value="&lt;span style=&quot;font-family: &amp;quot;Roboto Mono&amp;quot;;&quot;&gt;ActionResult&lt;/span&gt;" style="endArrow=open;html=1;endFill=0;fontSize=9;exitX=0;exitY=1;exitDx=0;exitDy=0;dashed=1;" edge="1" parent="1">
                    <mxGeometry y="-10" width="50" height="50" relative="1" as="geometry">
                        <mxPoint x="350" y="969" as="sourcePoint"/>
                        <mxPoint x="280" y="969" as="targetPoint"/>
                        <mxPoint as="offset"/>
                    </mxGeometry>
                </mxCell>
                <mxCell id="160" value="&lt;p style=&quot;line-height: 110%;&quot;&gt;&lt;span style=&quot;font-size: 10px;&quot;&gt;External API&lt;/span&gt;&lt;/p&gt;" style="rounded=0;whiteSpace=wrap;html=1;strokeColor=default;fontStyle=1" vertex="1" parent="1">
                    <mxGeometry x="600" y="50" width="70" height="20" as="geometry"/>
                </mxCell>
            </root>
        </mxGraphModel>
    </diagram>
</mxfile>